<mxfile host="app.diagrams.net" agent="Mozilla/5.0 (Windows NT 10.0; Win64; x64) AppleWebKit/537.36 (KHTML, like Gecko) Chrome/127.0.0.0 Safari/537.36" version="24.7.16">
  <diagram name="Side-1" id="CH3HlNWA8KkId1LWTNFl">
    <mxGraphModel dx="1050" dy="565" grid="1" gridSize="10" guides="1" tooltips="1" connect="1" arrows="1" fold="1" page="1" pageScale="1" pageWidth="827" pageHeight="1169" math="0" shadow="0">
      <root>
        <mxCell id="0" />
        <mxCell id="1" parent="0" />
        <mxCell id="9Zr2iPIZ8Dd4xAfSisfv-5" value="" style="ellipse;html=1;shape=startState;fillColor=#000000;strokeColor=#ff0000;" vertex="1" parent="1">
          <mxGeometry x="690" y="70" width="30" height="30" as="geometry" />
        </mxCell>
        <mxCell id="9Zr2iPIZ8Dd4xAfSisfv-6" value="" style="edgeStyle=orthogonalEdgeStyle;html=1;verticalAlign=bottom;endArrow=open;endSize=8;strokeColor=#ff0000;rounded=0;" edge="1" source="9Zr2iPIZ8Dd4xAfSisfv-5" parent="1">
          <mxGeometry relative="1" as="geometry">
            <mxPoint x="705" y="160" as="targetPoint" />
          </mxGeometry>
        </mxCell>
        <mxCell id="9Zr2iPIZ8Dd4xAfSisfv-7" value="Attack" style="rounded=1;whiteSpace=wrap;html=1;" vertex="1" parent="1">
          <mxGeometry x="645" y="160" width="120" height="60" as="geometry" />
        </mxCell>
        <mxCell id="9Zr2iPIZ8Dd4xAfSisfv-8" value="" style="endArrow=classic;html=1;rounded=0;exitX=0.5;exitY=1;exitDx=0;exitDy=0;" edge="1" parent="1" source="9Zr2iPIZ8Dd4xAfSisfv-7">
          <mxGeometry width="50" height="50" relative="1" as="geometry">
            <mxPoint x="680" y="270" as="sourcePoint" />
            <mxPoint x="705" y="270" as="targetPoint" />
          </mxGeometry>
        </mxCell>
        <mxCell id="9Zr2iPIZ8Dd4xAfSisfv-9" value="Tjek for enemy" style="rhombus;whiteSpace=wrap;html=1;" vertex="1" parent="1">
          <mxGeometry x="665" y="270" width="80" height="80" as="geometry" />
        </mxCell>
        <mxCell id="9Zr2iPIZ8Dd4xAfSisfv-10" value="" style="ellipse;html=1;shape=endState;fillColor=#000000;strokeColor=#ff0000;" vertex="1" parent="1">
          <mxGeometry x="385" y="440" width="30" height="30" as="geometry" />
        </mxCell>
        <mxCell id="9Zr2iPIZ8Dd4xAfSisfv-12" value="" style="endArrow=classic;html=1;rounded=0;entryX=1;entryY=0.5;entryDx=0;entryDy=0;exitX=0.5;exitY=1;exitDx=0;exitDy=0;" edge="1" parent="1" source="9Zr2iPIZ8Dd4xAfSisfv-9" target="9Zr2iPIZ8Dd4xAfSisfv-10">
          <mxGeometry width="50" height="50" relative="1" as="geometry">
            <mxPoint x="680" y="410" as="sourcePoint" />
            <mxPoint x="730" y="360" as="targetPoint" />
            <Array as="points">
              <mxPoint x="705" y="455" />
            </Array>
          </mxGeometry>
        </mxCell>
        <mxCell id="9Zr2iPIZ8Dd4xAfSisfv-13" value="Nej" style="text;html=1;align=center;verticalAlign=middle;resizable=0;points=[];autosize=1;strokeColor=none;fillColor=none;" vertex="1" parent="1">
          <mxGeometry x="704" y="390" width="40" height="30" as="geometry" />
        </mxCell>
        <mxCell id="9Zr2iPIZ8Dd4xAfSisfv-14" value="Tjek om våben er equipped" style="rhombus;whiteSpace=wrap;html=1;" vertex="1" parent="1">
          <mxGeometry x="530" y="270" width="80" height="80" as="geometry" />
        </mxCell>
        <mxCell id="9Zr2iPIZ8Dd4xAfSisfv-16" value="" style="endArrow=classic;html=1;rounded=0;entryX=1;entryY=0.5;entryDx=0;entryDy=0;exitX=0;exitY=0.5;exitDx=0;exitDy=0;" edge="1" parent="1" source="9Zr2iPIZ8Dd4xAfSisfv-9" target="9Zr2iPIZ8Dd4xAfSisfv-14">
          <mxGeometry width="50" height="50" relative="1" as="geometry">
            <mxPoint x="660" y="310" as="sourcePoint" />
            <mxPoint x="730" y="360" as="targetPoint" />
          </mxGeometry>
        </mxCell>
        <mxCell id="9Zr2iPIZ8Dd4xAfSisfv-17" value="ja" style="text;html=1;align=center;verticalAlign=middle;resizable=0;points=[];autosize=1;strokeColor=none;fillColor=none;" vertex="1" parent="1">
          <mxGeometry x="625" y="278" width="30" height="30" as="geometry" />
        </mxCell>
        <mxCell id="9Zr2iPIZ8Dd4xAfSisfv-21" value="nej" style="text;html=1;align=center;verticalAlign=middle;resizable=0;points=[];autosize=1;strokeColor=none;fillColor=none;" vertex="1" parent="1">
          <mxGeometry x="475" y="370" width="40" height="30" as="geometry" />
        </mxCell>
        <mxCell id="9Zr2iPIZ8Dd4xAfSisfv-23" value="" style="endArrow=classic;html=1;rounded=0;exitX=0;exitY=0.5;exitDx=0;exitDy=0;" edge="1" parent="1" source="9Zr2iPIZ8Dd4xAfSisfv-14">
          <mxGeometry width="50" height="50" relative="1" as="geometry">
            <mxPoint x="520" y="470" as="sourcePoint" />
            <mxPoint x="440" y="310" as="targetPoint" />
          </mxGeometry>
        </mxCell>
        <mxCell id="9Zr2iPIZ8Dd4xAfSisfv-24" value="ja" style="text;html=1;align=center;verticalAlign=middle;resizable=0;points=[];autosize=1;strokeColor=none;fillColor=none;" vertex="1" parent="1">
          <mxGeometry x="475" y="278" width="30" height="30" as="geometry" />
        </mxCell>
        <mxCell id="9Zr2iPIZ8Dd4xAfSisfv-25" value="Tjek for om våbnet kan bruges" style="rhombus;whiteSpace=wrap;html=1;" vertex="1" parent="1">
          <mxGeometry x="360" y="270" width="80" height="80" as="geometry" />
        </mxCell>
        <mxCell id="9Zr2iPIZ8Dd4xAfSisfv-27" value="nej" style="text;html=1;align=center;verticalAlign=middle;resizable=0;points=[];autosize=1;strokeColor=none;fillColor=none;" vertex="1" parent="1">
          <mxGeometry x="150" y="425" width="40" height="30" as="geometry" />
        </mxCell>
        <mxCell id="9Zr2iPIZ8Dd4xAfSisfv-28" value="" style="endArrow=classic;html=1;rounded=0;exitX=0;exitY=0.5;exitDx=0;exitDy=0;" edge="1" parent="1" source="9Zr2iPIZ8Dd4xAfSisfv-25" target="9Zr2iPIZ8Dd4xAfSisfv-29">
          <mxGeometry width="50" height="50" relative="1" as="geometry">
            <mxPoint x="250" y="400" as="sourcePoint" />
            <mxPoint x="280" y="310" as="targetPoint" />
          </mxGeometry>
        </mxCell>
        <mxCell id="9Zr2iPIZ8Dd4xAfSisfv-29" value="Player angriber fjenden" style="rounded=1;whiteSpace=wrap;html=1;" vertex="1" parent="1">
          <mxGeometry x="200" y="280" width="120" height="60" as="geometry" />
        </mxCell>
        <mxCell id="9Zr2iPIZ8Dd4xAfSisfv-30" value="Fjenden tager skade" style="rounded=1;whiteSpace=wrap;html=1;" vertex="1" parent="1">
          <mxGeometry x="50" y="280" width="120" height="60" as="geometry" />
        </mxCell>
        <mxCell id="9Zr2iPIZ8Dd4xAfSisfv-31" value="" style="endArrow=classic;html=1;rounded=0;entryX=1;entryY=0.5;entryDx=0;entryDy=0;exitX=0;exitY=0.5;exitDx=0;exitDy=0;" edge="1" parent="1" source="9Zr2iPIZ8Dd4xAfSisfv-29" target="9Zr2iPIZ8Dd4xAfSisfv-30">
          <mxGeometry width="50" height="50" relative="1" as="geometry">
            <mxPoint x="250" y="400" as="sourcePoint" />
            <mxPoint x="300" y="350" as="targetPoint" />
          </mxGeometry>
        </mxCell>
        <mxCell id="9Zr2iPIZ8Dd4xAfSisfv-32" value="Tjek om fjenden stadig er i live" style="rhombus;whiteSpace=wrap;html=1;" vertex="1" parent="1">
          <mxGeometry x="70" y="415" width="80" height="80" as="geometry" />
        </mxCell>
        <mxCell id="9Zr2iPIZ8Dd4xAfSisfv-33" value="" style="endArrow=classic;html=1;rounded=0;entryX=0.5;entryY=0;entryDx=0;entryDy=0;exitX=0.5;exitY=1;exitDx=0;exitDy=0;" edge="1" parent="1" source="9Zr2iPIZ8Dd4xAfSisfv-25" target="9Zr2iPIZ8Dd4xAfSisfv-10">
          <mxGeometry width="50" height="50" relative="1" as="geometry">
            <mxPoint x="290" y="430" as="sourcePoint" />
            <mxPoint x="340" y="380" as="targetPoint" />
          </mxGeometry>
        </mxCell>
        <mxCell id="9Zr2iPIZ8Dd4xAfSisfv-35" value="" style="endArrow=classic;html=1;rounded=0;exitX=0;exitY=1;exitDx=0;exitDy=0;entryX=1;entryY=0;entryDx=0;entryDy=0;" edge="1" parent="1" source="9Zr2iPIZ8Dd4xAfSisfv-14" target="9Zr2iPIZ8Dd4xAfSisfv-10">
          <mxGeometry width="50" height="50" relative="1" as="geometry">
            <mxPoint x="290" y="430" as="sourcePoint" />
            <mxPoint x="340" y="380" as="targetPoint" />
          </mxGeometry>
        </mxCell>
        <mxCell id="9Zr2iPIZ8Dd4xAfSisfv-36" value="" style="endArrow=classic;html=1;rounded=0;entryX=0.5;entryY=0;entryDx=0;entryDy=0;exitX=0.5;exitY=1;exitDx=0;exitDy=0;" edge="1" parent="1" source="9Zr2iPIZ8Dd4xAfSisfv-30" target="9Zr2iPIZ8Dd4xAfSisfv-32">
          <mxGeometry width="50" height="50" relative="1" as="geometry">
            <mxPoint x="290" y="460" as="sourcePoint" />
            <mxPoint x="340" y="410" as="targetPoint" />
          </mxGeometry>
        </mxCell>
        <mxCell id="9Zr2iPIZ8Dd4xAfSisfv-38" value="" style="endArrow=classic;html=1;rounded=0;entryX=0;entryY=0.5;entryDx=0;entryDy=0;exitX=1;exitY=0.5;exitDx=0;exitDy=0;" edge="1" parent="1" source="9Zr2iPIZ8Dd4xAfSisfv-32" target="9Zr2iPIZ8Dd4xAfSisfv-43">
          <mxGeometry width="50" height="50" relative="1" as="geometry">
            <mxPoint x="262.5" y="538" as="sourcePoint" />
            <mxPoint x="497.5" y="538" as="targetPoint" />
          </mxGeometry>
        </mxCell>
        <mxCell id="9Zr2iPIZ8Dd4xAfSisfv-39" value="" style="endArrow=classic;html=1;rounded=0;exitX=0.5;exitY=1;exitDx=0;exitDy=0;" edge="1" parent="1" source="9Zr2iPIZ8Dd4xAfSisfv-32">
          <mxGeometry width="50" height="50" relative="1" as="geometry">
            <mxPoint x="290" y="520" as="sourcePoint" />
            <mxPoint x="110" y="570" as="targetPoint" />
          </mxGeometry>
        </mxCell>
        <mxCell id="9Zr2iPIZ8Dd4xAfSisfv-40" value="nej" style="text;html=1;align=center;verticalAlign=middle;resizable=0;points=[];autosize=1;strokeColor=none;fillColor=none;" vertex="1" parent="1">
          <mxGeometry x="230" y="428" width="40" height="30" as="geometry" />
        </mxCell>
        <mxCell id="9Zr2iPIZ8Dd4xAfSisfv-41" value="ja" style="text;html=1;align=center;verticalAlign=middle;resizable=0;points=[];autosize=1;strokeColor=none;fillColor=none;" vertex="1" parent="1">
          <mxGeometry x="105" y="508" width="30" height="30" as="geometry" />
        </mxCell>
        <mxCell id="9Zr2iPIZ8Dd4xAfSisfv-42" value="Fjenden angriber spilleren" style="rounded=1;whiteSpace=wrap;html=1;" vertex="1" parent="1">
          <mxGeometry x="50" y="570" width="120" height="60" as="geometry" />
        </mxCell>
        <mxCell id="9Zr2iPIZ8Dd4xAfSisfv-44" value="" style="edgeStyle=orthogonalEdgeStyle;rounded=0;orthogonalLoop=1;jettySize=auto;html=1;" edge="1" parent="1" source="9Zr2iPIZ8Dd4xAfSisfv-43" target="9Zr2iPIZ8Dd4xAfSisfv-10">
          <mxGeometry relative="1" as="geometry" />
        </mxCell>
        <mxCell id="9Zr2iPIZ8Dd4xAfSisfv-43" value="Fjenden dropper sin våben i rummet" style="rounded=1;whiteSpace=wrap;html=1;" vertex="1" parent="1">
          <mxGeometry x="200" y="425" width="120" height="60" as="geometry" />
        </mxCell>
        <mxCell id="9Zr2iPIZ8Dd4xAfSisfv-47" value="" style="endArrow=classic;html=1;rounded=0;entryX=0;entryY=0.5;entryDx=0;entryDy=0;exitX=1;exitY=0.5;exitDx=0;exitDy=0;" edge="1" parent="1" source="9Zr2iPIZ8Dd4xAfSisfv-42" target="9Zr2iPIZ8Dd4xAfSisfv-48">
          <mxGeometry width="50" height="50" relative="1" as="geometry">
            <mxPoint x="290" y="520" as="sourcePoint" />
            <mxPoint x="280" y="600" as="targetPoint" />
          </mxGeometry>
        </mxCell>
        <mxCell id="9Zr2iPIZ8Dd4xAfSisfv-48" value="Spilleren tager skade" style="rounded=1;whiteSpace=wrap;html=1;" vertex="1" parent="1">
          <mxGeometry x="330" y="570" width="120" height="60" as="geometry" />
        </mxCell>
        <mxCell id="9Zr2iPIZ8Dd4xAfSisfv-49" value="" style="endArrow=classic;html=1;rounded=0;entryX=0.5;entryY=1;entryDx=0;entryDy=0;exitX=0.587;exitY=-0.017;exitDx=0;exitDy=0;exitPerimeter=0;" edge="1" parent="1" source="9Zr2iPIZ8Dd4xAfSisfv-48" target="9Zr2iPIZ8Dd4xAfSisfv-10">
          <mxGeometry width="50" height="50" relative="1" as="geometry">
            <mxPoint x="290" y="520" as="sourcePoint" />
            <mxPoint x="340" y="470" as="targetPoint" />
          </mxGeometry>
        </mxCell>
      </root>
    </mxGraphModel>
  </diagram>
</mxfile>
